<svg xmlns="http://www.w3.org/2000/svg" viewBox="0 0 823.78 828.05"><defs><style>.cls-1{fill:#fff;}</style></defs><g id="Camada_2" data-name="Camada 2"><g id="Camada_1-2" data-name="Camada 1"><path class="cls-1" d="M46.56,368a14.5,14.5,0,0,0-2-9.91A11.34,11.34,0,0,0,36.74,353l.64-5.23a15.5,15.5,0,0,1,7.85,3.82,17.74,17.74,0,0,1,5,7.59,20.78,20.78,0,0,1,1,9.45Q50,378.27,42.56,383.1t-18.77,3.44l-1.64-.19a31.11,31.11,0,0,1-12.54-4.12,19.84,19.84,0,0,1-7.74-8.34A20.28,20.28,0,0,1,.19,362.41a19.07,19.07,0,0,1,6.44-12.74A17.68,17.68,0,0,1,20,345.61l-.63,5.22a13.49,13.49,0,0,0-9.82,3A13.58,13.58,0,0,0,4.82,363q-.9,7.36,3.92,12.07t14.4,5.88l1.59.2q9.4,1.14,15.16-2.28T46.56,368Z"/><path class="cls-1" d="M29.83,332.68a29,29,0,0,1-11.67-6.06,20.78,20.78,0,0,1-6.56-21.79,20.32,20.32,0,0,1,10.91-13.61q8.29-4.1,19.33-1.07l1.11.3a29.4,29.4,0,0,1,11.73,6.08,20.61,20.61,0,0,1,6.48,9.86,21.4,21.4,0,0,1,0,11.9,20.39,20.39,0,0,1-10.91,13.6Q41.92,336,30.89,333Zm2.9-4.89q8.57,2.34,15.27-.59A15.56,15.56,0,0,0,54.35,304q-4.27-5.94-13.28-8.4l-1-.27a25,25,0,0,0-10.57-.71,16.94,16.94,0,0,0-8.6,3.76,15.09,15.09,0,0,0-4.78,7.71,14.62,14.62,0,0,0,2.39,13q4.31,6,13.27,8.42Z"/><path class="cls-1" d="M27.75,259.18l7.81,3.27A19.73,19.73,0,0,1,32,253.26a18.07,18.07,0,0,1,1.53-9.38q3.22-7.27,8.9-9t13.89,1.86L86,249.88l-2.2,5L54.08,241.68Q48,239,43.9,240.24T37.34,247a13.88,13.88,0,0,0-.73,9.51,18.59,18.59,0,0,0,5.5,8.77L73.1,279l-2.2,5L25.64,264Z"/><path class="cls-1" d="M62,208.7a19.33,19.33,0,0,1-2.09-9.51,18.14,18.14,0,0,1,2.88-9.06q4.26-6.72,10.13-7.61t13.47,3.89l27.43,17.4-2.92,4.59L83.43,191q-5.62-3.51-9.85-2.92T66.1,193.8A13.77,13.77,0,0,0,64,203.09a18.63,18.63,0,0,0,4.14,9.49l28.63,18.16-2.92,4.59L34.48,197.69l2.91-4.6Z"/><path class="cls-1" d="M136.93,176.62a21.5,21.5,0,0,1-9.79,6.64,21.29,21.29,0,0,1-11.75.39,27.08,27.08,0,0,1-11.31-6l-1.5-1.28a29.29,29.29,0,0,1-8-10.47,22.06,22.06,0,0,1-1.81-11.71A19,19,0,0,1,97.29,144q5.86-6.85,14-6.86t16.21,6.93l2.32,2-23,26.82.8.68A20.75,20.75,0,0,0,121.41,179a15.37,15.37,0,0,0,12.16-5.57,18,18,0,0,0,3.83-6.94,17.07,17.07,0,0,0,.08-8l4.22-.91Q144.4,167.9,136.93,176.62ZM100.84,147a13.72,13.72,0,0,0-3.34,10.85q.69,6.16,5.9,11.83l19.32-22.55-.45-.38q-5.58-4.47-11.48-4.47A12.61,12.61,0,0,0,100.84,147Z"/><path class="cls-1" d="M169,137.82a14.49,14.49,0,0,0,5.05-8.76,11.35,11.35,0,0,0-2.39-9l3.94-3.49a15.48,15.48,0,0,1,3.34,8.07,17.71,17.71,0,0,1-1.33,9,20.85,20.85,0,0,1-5.55,7.71q-7.31,6.45-16.06,5.15t-16.32-9.88l-1.09-1.23a30.94,30.94,0,0,1-6.65-11.4,19.67,19.67,0,0,1-.25-11.38,20.23,20.23,0,0,1,6.35-9.7,19.07,19.07,0,0,1,13.28-5.26A17.69,17.69,0,0,1,164,103.41l-3.94,3.48a13.24,13.24,0,0,0-18.93-.55q-5.55,4.91-5.08,11.63t6.87,13.95l1.06,1.2q6.27,7.11,12.85,8.37T169,137.82Zm3.86,2.09,1.53,2.55q6.28-4.28,10.83.87a7.71,7.71,0,0,1,1.72,7.4q-1.08,4.25-5.74,8.36l-2.6-2.46a13.25,13.25,0,0,0,4-5.52,4.47,4.47,0,0,0-.71-4.71A3.72,3.72,0,0,0,178,145a17.69,17.69,0,0,0-5.45,3l-2.85-5.24Z"/><path class="cls-1" d="M222.57,102.81a25.56,25.56,0,0,1-4.68-5.2,19.09,19.09,0,0,1-2.95,8.88,22.58,22.58,0,0,1-6.77,6.89q-6,3.93-11.84,3a13,13,0,0,1-9.22-6,13.26,13.26,0,0,1-1.27-12.86q2.72-6.82,11.69-12.74l8.3-5.46-3.1-4.7a10.83,10.83,0,0,0-7.32-5.17q-4.41-.75-9.64,2.7a14.88,14.88,0,0,0-6.3,7.66,8.67,8.67,0,0,0,.74,7.94l-4.61,3q-3.25-4.92-1-11.56a21.17,21.17,0,0,1,8.89-11q6.93-4.55,13.19-3.72t10.46,6.94L220,91q4,6,7.18,8.15l.3.46ZM206,109a18.37,18.37,0,0,0,6.73-7.61A15.61,15.61,0,0,0,214.13,92l-6-9.09L200,88.27q-6.78,4.59-9.05,9.55a9,9,0,0,0,.53,9.21,8.83,8.83,0,0,0,6.38,4.07A11.64,11.64,0,0,0,206,109Z"/><path class="cls-1" d="M252.84,57.81a29.16,29.16,0,0,1-2-13,20.8,20.8,0,0,1,13.76-18.12q9.25-3.49,17.43.82t12.24,15l.4,1.07a29.31,29.31,0,0,1,2,13.06,20.71,20.71,0,0,1-4.16,11,21.47,21.47,0,0,1-9.64,7,20.39,20.39,0,0,1-17.41-.82q-8.21-4.31-12.26-15Zm5.67-.53q3.15,8.3,9.46,12a15.56,15.56,0,0,0,22.51-8.52q2.28-7-1-15.68l-.37-1a25.1,25.1,0,0,0-5.65-9,16.83,16.83,0,0,0-8.1-4.73,15,15,0,0,0-9,.66,14.59,14.59,0,0,0-9.13,9.59q-2.3,7,1,15.69Z"/><path class="cls-1" d="M341.38,5.71l1,8a18.32,18.32,0,0,1,6.18-7.37,18.92,18.92,0,0,1,8.89-3.12q11.65-1.14,15.73,8.11a18.71,18.71,0,0,1,6.37-7.77A19.68,19.68,0,0,1,389,.13q15.84-1.56,17.86,15.72l3.22,32.88-5.47.53-3.18-32.47c-.46-4.39-1.72-7.57-3.8-9.51S392.42,4.58,388.2,5a14.57,14.57,0,0,0-9.56,4.77A13.52,13.52,0,0,0,375,19.24l3.19,32.61-5.46.53L369.53,19.5c-.44-4.21-1.75-7.27-3.91-9.15s-5.27-2.64-9.34-2.24a13.9,13.9,0,0,0-8.55,3.8,17.34,17.34,0,0,0-4.61,9.26L346.43,55l-5.47.53L336.14,6.22Z"/><path class="cls-1" d="M444.86,52.8a21.48,21.48,0,0,1-11.11-4.07,21.13,21.13,0,0,1-7.16-9.32,27,27,0,0,1-1.77-12.66l.17-2a29.18,29.18,0,0,1,3.86-12.58,22,22,0,0,1,8.45-8.29,18.92,18.92,0,0,1,10.94-2.35q9,.76,13.72,7.35t3.83,17.21l-.26,3.05-35.19-3-.09,1.05a20.72,20.72,0,0,0,3.61,14.39,15.36,15.36,0,0,0,11.62,6.62,17.91,17.91,0,0,0,7.87-.93,17.23,17.23,0,0,0,6.52-4.59l3.2,2.89Q456.31,53.8,444.86,52.8Zm3-46.58a13.72,13.72,0,0,0-10.76,3.62q-4.6,4.15-6.17,11.69l29.58,2.54.06-.6q.38-7.12-3.07-11.92A12.63,12.63,0,0,0,447.85,6.22Z"/><path class="cls-1" d="M508.79,56.81q-6.45,5.88-17,3.41-7.71-1.8-10.68-7.22t-1-14.21l7.33-31.37,5.3,1.24-7.17,30.7q-3.21,13.77,7.92,16.37,11.58,2.7,16.9-6.15l8.15-34.89,5.34,1.25L512.62,64.15l-5.17-1.21Z"/><path class="cls-1" d="M586.58,25.79l-5.2,11.56,9.35,4.2-1.84,4.09-9.35-4.2L566,71.55c-1.13,2.51-1.51,4.58-1.16,6.21s1.58,2.92,3.7,3.88a34.61,34.61,0,0,0,4.23,1.4l-1.61,4.15a18.05,18.05,0,0,1-5.66-1.7q-5.13-2.31-6.12-6.35T561,69.31l13.56-30.13-8.31-3.73,1.84-4.09,8.3,3.74,5.21-11.56Z"/><path class="cls-1" d="M625.37,65.69a20.33,20.33,0,0,0-3.06-2.11,13.36,13.36,0,0,0-8.95-1.8,15.67,15.67,0,0,0-8.5,4.73L588.07,96.07l-4.73-2.69,24.45-43L612.44,53l-3.81,6.89q8.13-5.49,16.48-.74a9.13,9.13,0,0,1,2.85,2.3Z"/><path class="cls-1" d="M636.7,128.2a25.93,25.93,0,0,1,3.23-6.19,19.17,19.17,0,0,1-9.35.33,22.48,22.48,0,0,1-8.82-3.93q-5.76-4.22-7-10a13,13,0,0,1,2.38-10.73A13.25,13.25,0,0,1,628.77,92q7.34.17,16,6.51l8,5.86,3.32-4.55a10.8,10.8,0,0,0,2.29-8.67q-.84-4.38-5.9-8.08a14.93,14.93,0,0,0-9.37-3.23A8.71,8.71,0,0,0,636,83.27L631.54,80Q635,75.23,642,75a21.13,21.13,0,0,1,13.45,4.48q6.67,4.89,8.1,11.05t-2.85,12.23l-13.83,18.91q-4.25,5.79-5.13,9.57l-.32.44Zm-11.56-13.33a18.32,18.32,0,0,0,9.48,3.65,15.53,15.53,0,0,0,9.27-2l6.43-8.79-7.91-5.78q-6.66-4.75-12.11-5.14a9,9,0,0,0-8.44,3.72,8.81,8.81,0,0,0-1.58,7.4A11.61,11.61,0,0,0,625.14,114.87Z"/><path class="cls-1" d="M698.64,152.39q-8.13,8.25-16.54,9.5a16.35,16.35,0,0,1-14.58-4.82q-7.38-7.24-5.76-16.45l-4.92,4.66-3.65-3.59,49.3-50.09,3.88,3.82-19.61,19.93q9.4-2.11,16.7,5.07a16.51,16.51,0,0,1,5.2,14.52q-1.06,8.35-9.45,16.87Zm-3.24-4.53q6.87-7,7.9-13.44a12.38,12.38,0,0,0-3.89-11.31,15.15,15.15,0,0,0-8.17-4.42,15.69,15.69,0,0,0-9.26,1.52l-15.66,15.91q-3.62,9.54,3.82,16.86a12.28,12.28,0,0,0,11.3,3.61Q687.92,155.45,695.4,147.86Z"/><path class="cls-1" d="M709.86,205.64a25.83,25.83,0,0,1,4.88-5,19.09,19.09,0,0,1-9-2.36,22.7,22.7,0,0,1-7.32-6.31q-4.3-5.7-3.79-11.62a13,13,0,0,1,5.37-9.59,13.23,13.23,0,0,1,12.75-2.1q7,2.26,13.47,10.84l6,7.92,4.49-3.4a10.82,10.82,0,0,0,4.68-7.64c.31-3-.8-6.11-3.32-9.45a15,15,0,0,0-8-5.79,8.73,8.73,0,0,0-7.88,1.26L718.8,158q4.71-3.55,11.47-1.78a21.12,21.12,0,0,1,11.59,8.16q5,6.6,4.57,12.91t-6.25,10.89L721.5,202.29q-5.73,4.34-7.67,7.69l-.44.33Zm-7.23-16.1a18.31,18.31,0,0,0,8,6.23,15.62,15.62,0,0,0,9.45.74L728.8,190l-5.91-7.81q-5-6.48-10.11-8.42a9,9,0,0,0-9.16,1.13,8.89,8.89,0,0,0-3.65,6.63A11.6,11.6,0,0,0,702.63,189.54Z"/><path class="cls-1" d="M724.87,229.36,722,224.65l60.22-36.23,2.83,4.71Z"/><path class="cls-1" d="M773.59,232.36a19.28,19.28,0,0,1,9.13,3.39,18.15,18.15,0,0,1,6.07,7.32q3.35,7.23.91,12.64t-10.55,9.22l-29.48,13.65-2.29-4.94L776.9,260q6-2.82,7.79-6.7t-.78-9.4a13.81,13.81,0,0,0-6.66-6.82A18.57,18.57,0,0,0,767,235.4l-30.76,14.25L734,244.71l63.77-29.53,2.29,4.94Z"/><path class="cls-1" d="M779.08,283.93A29.23,29.23,0,0,1,792.2,283a20.82,20.82,0,0,1,17,15.13A20.4,20.4,0,0,1,807,315.44q-4.93,7.81-15.92,11l-1.1.32a29.37,29.37,0,0,1-13.18,1,20.67,20.67,0,0,1-10.68-5,21.34,21.34,0,0,1-6.2-10.15,20.35,20.35,0,0,1,2.18-17.29Q767,287.43,778,284.24Zm.09,5.69q-8.52,2.49-12.7,8.5a15.55,15.55,0,0,0,6.73,23.1q6.76,2.82,15.72.21l1-.3a25.11,25.11,0,0,0,9.38-4.92,16.92,16.92,0,0,0,5.35-7.71,15,15,0,0,0,.05-9.07,14.61,14.61,0,0,0-8.85-9.86q-6.81-2.82-15.72-.23Z"/><path class="cls-1" d="M807.35,369.92a8,8,0,0,1,6.09,1.8,9.42,9.42,0,0,1,1.16,12.16,7.89,7.89,0,0,1-5.51,2.93l-1.82.16a7.72,7.72,0,0,1-6.09-1.79,9.66,9.66,0,0,1-1-12.27,7.88,7.88,0,0,1,5.72-2.85Z"/><path class="cls-1" d="M777.16,451.44a14.45,14.45,0,0,0,2.29,9.85,11.35,11.35,0,0,0,7.91,5l-.51,5.24a15.44,15.44,0,0,1-7.94-3.62,17.69,17.69,0,0,1-5.14-7.46,21,21,0,0,1-1.21-9.43q.95-9.69,8.23-14.71t18.67-3.92l1.64.16a31,31,0,0,1,12.64,3.79,19.77,19.77,0,0,1,8,8.15,20.26,20.26,0,0,1,2,11.43,19.09,19.09,0,0,1-6.12,12.9,17.67,17.67,0,0,1-13.25,4.39l.51-5.23A13.26,13.26,0,0,0,819,455.44q.71-7.38-4.22-12T800.25,438l-1.59-.15q-9.43-.92-15.1,2.65T777.16,451.44Z"/><path class="cls-1" d="M794.78,486.32a29.18,29.18,0,0,1,11.83,5.77,20.81,20.81,0,0,1,7.11,21.61q-2.37,9.6-10.56,13.89t-19.31,1.56l-1.11-.27a29.47,29.47,0,0,1-11.88-5.78,20.63,20.63,0,0,1-6.73-9.7,21.28,21.28,0,0,1-.28-11.89,20.39,20.39,0,0,1,10.56-13.87q8.21-4.32,19.31-1.58Zm-2.78,5q-8.61-2.12-15.24,1A15.56,15.56,0,0,0,771,515.64q4.43,5.82,13.49,8.06l1,.25a25.12,25.12,0,0,0,10.59.44,16.94,16.94,0,0,0,8.5-4,15.08,15.08,0,0,0,4.59-7.82,14.62,14.62,0,0,0-2.72-13Q802,493.76,793,491.53Z"/><path class="cls-1" d="M798.73,559.76l-7.9-3.07a19.69,19.69,0,0,1,3.8,9.1,18.07,18.07,0,0,1-1.29,9.41q-3,7.37-8.67,9.24t-13.94-1.5l-30-12.4,2.08-5,30.06,12.42q6.15,2.49,10.21,1.17t6.39-6.94a13.87,13.87,0,0,0,.49-9.52,18.61,18.61,0,0,0-5.72-8.63l-31.33-13,2.08-5,45.75,18.91Z"/><path class="cls-1" d="M765.76,611.1a19.28,19.28,0,0,1,2.33,9.45,18.07,18.07,0,0,1-2.65,9.14q-4.1,6.82-9.94,7.85T741.94,634l-27.86-16.7,2.8-4.67,27.9,16.73q5.72,3.36,9.92,2.66T762,626.1a13.77,13.77,0,0,0,1.9-9.34,18.67,18.67,0,0,0-4.38-9.38L730.48,590l2.8-4.67,60.27,36.13-2.8,4.67Z"/><path class="cls-1" d="M691.67,645.05a21.53,21.53,0,0,1,9.62-6.89,21.29,21.29,0,0,1,11.73-.68,27.08,27.08,0,0,1,11.46,5.68L726,644.4a29.13,29.13,0,0,1,8.22,10.26,22,22,0,0,1,2.1,11.66,19,19,0,0,1-4.22,10.37q-5.68,7-13.8,7.2t-16.38-6.52l-2.37-1.94L721.86,648l-.81-.66a20.76,20.76,0,0,0-13.93-5.11,15.3,15.3,0,0,0-12,5.88,17.86,17.86,0,0,0-3.66,7,17.11,17.11,0,0,0,.12,8l-4.19,1Q684.41,654,691.67,645.05Zm36.82,28.69a13.69,13.69,0,0,0,3.06-10.93q-.84-6.15-6.19-11.68l-18.75,23,.47.37a18.12,18.12,0,0,0,11.58,4.18A12.61,12.61,0,0,0,728.49,673.74Z"/><path class="cls-1" d="M656.66,682.66l-1.59-2.52q-6.2,4.44-10.86-.6a7.7,7.7,0,0,1-1.9-7.35q1-4.28,5.53-8.51l2.66,2.4a13.24,13.24,0,0,0-3.86,5.62,4.48,4.48,0,0,0,.83,4.69,3.73,3.73,0,0,0,3.95,1.33,17.4,17.4,0,0,0,5.37-3.12l3,5.16Zm3.91,2a14.38,14.38,0,0,0-4.83,8.88,11.38,11.38,0,0,0,2.62,9l-3.86,3.58a15.53,15.53,0,0,1-3.54-8,17.72,17.72,0,0,1,1.11-9,20.83,20.83,0,0,1,5.35-7.85q7.14-6.63,15.92-5.55t16.57,9.47l1.12,1.2A31,31,0,0,1,698,697.61,19.72,19.72,0,0,1,698.5,709a20.28,20.28,0,0,1-6.1,9.86,19.09,19.09,0,0,1-13.14,5.59,17.67,17.67,0,0,1-12.83-5.51l3.85-3.58a13.26,13.26,0,0,0,18.94.08q5.43-5,4.79-11.75t-7.22-13.78l-1.09-1.18q-6.44-6.93-13.06-8T660.57,684.65Z"/><path class="cls-1" d="M607.9,721a26.16,26.16,0,0,1,4.81,5.08,19.08,19.08,0,0,1,2.73-9,22.42,22.42,0,0,1,6.59-7.06c3.91-2.72,7.83-3.82,11.76-3.33a13,13,0,0,1,9.37,5.75,13.26,13.26,0,0,1,1.59,12.83q-2.54,6.88-11.37,13L625.23,744l3.21,4.62a10.82,10.82,0,0,0,7.45,5q4.43.63,9.57-3a14.92,14.92,0,0,0,6.11-7.81,8.7,8.7,0,0,0-.94-7.92l4.53-3.1q3.38,4.84,1.33,11.53a21.13,21.13,0,0,1-8.62,11.26q-6.79,4.73-13.09,4T624.15,752l-13.37-19.23q-4.1-5.91-7.37-8l-.32-.45Zm16.37-6.58a18.42,18.42,0,0,0-6.54,7.78,15.59,15.59,0,0,0-1.12,9.41l6.22,8.94,8-5.59q6.66-4.74,8.8-9.77a9,9,0,0,0-.76-9.19,8.84,8.84,0,0,0-6.48-3.91A11.64,11.64,0,0,0,624.27,714.41Z"/><path class="cls-1" d="M578.77,766.75a29.19,29.19,0,0,1,2.29,13,20.81,20.81,0,0,1-13.3,18.46q-9.15,3.74-17.45-.37t-12.61-14.7l-.43-1.06A29.39,29.39,0,0,1,535,769a20.72,20.72,0,0,1,3.88-11.14,21.4,21.4,0,0,1,9.46-7.22,20.38,20.38,0,0,1,17.43.38q8.31,4.1,12.63,14.69Zm-5.66.67q-3.35-8.22-9.76-11.76a15.56,15.56,0,0,0-22.28,9.09q-2.12,7,1.41,15.65l.4,1a25.3,25.3,0,0,0,5.87,8.82,17,17,0,0,0,8.22,4.53,15.11,15.11,0,0,0,9-.89,14.64,14.64,0,0,0,8.89-9.82q2.1-7.07-1.4-15.67Z"/><path class="cls-1" d="M491.58,821.07l-1.17-8a18.22,18.22,0,0,1-6,7.52,18.77,18.77,0,0,1-8.8,3.34q-11.62,1.44-15.94-7.71a18.56,18.56,0,0,1-6.17,7.93,19.68,19.68,0,0,1-9.41,3.67q-15.8,1.95-18.25-15.27l-4-32.78,5.45-.67,4,32.37q.86,6.59,4,9.42t9.5,2.05a14.56,14.56,0,0,0,9.43-5,13.53,13.53,0,0,0,3.39-9.57l-4-32.51,5.45-.67,4,32.78q.82,6.3,4.14,9.06c2.2,1.83,5.34,2.5,9.39,2a13.84,13.84,0,0,0,8.45-4,17.33,17.33,0,0,0,4.38-9.37L485.29,772l5.45-.67,6.06,49.13Z"/><path class="cls-1" d="M386.94,776.58a21.45,21.45,0,0,1,11.2,3.79,21.18,21.18,0,0,1,7.4,9.14,26.91,26.91,0,0,1,2.08,12.61l-.12,2A29.15,29.15,0,0,1,404,816.75a22,22,0,0,1-8.24,8.51,19,19,0,0,1-10.88,2.62q-9-.54-13.9-7t-4.26-17.1l.19-3.06,35.25,2.14.07-1.05a20.74,20.74,0,0,0-4-14.29,15.34,15.34,0,0,0-11.79-6.33,17.81,17.81,0,0,0-7.84,1.13,17.15,17.15,0,0,0-6.4,4.74l-3.27-2.81Q375.48,775.89,386.94,776.58Zm-1.82,46.64a13.68,13.68,0,0,0,10.66-3.89q4.5-4.26,5.88-11.84L372,805.7l0,.59q-.19,7.14,3.36,11.85A12.65,12.65,0,0,0,385.12,823.22Z"/><path class="cls-1" d="M322.92,774.18q6.3-6,16.91-3.83,7.76,1.6,10.85,6.94T352,791.47L345.51,823l-5.33-1.1L346.57,791q2.87-13.85-8.33-16.16-11.65-2.42-16.74,6.58l-7.26,35.08-5.38-1.12,10-48.47,5.2,1.07Z"/><path class="cls-1" d="M246,807.17l4.91-11.69-9.45-4,1.73-4.14,9.45,4,12.79-30.45c1.06-2.54,1.39-4.61,1-6.24s-1.66-2.88-3.8-3.78a34.47,34.47,0,0,0-4.27-1.29l1.51-4.19a17.82,17.82,0,0,1,5.7,1.56q5.19,2.17,6.29,6.18T270.44,763l-12.79,30.46,8.4,3.52-1.74,4.13-8.39-3.52L251,809.29Z"/><path class="cls-1" d="M206.17,768.27a20.35,20.35,0,0,0,3.11,2,13.37,13.37,0,0,0,9,1.57,15.61,15.61,0,0,0,8.37-4.94l16-30,4.8,2.57-23.35,43.65-4.72-2.53,3.63-7q-8,5.7-16.45,1.16a9.12,9.12,0,0,1-2.91-2.23Z"/><path class="cls-1" d="M193.26,706.05a26,26,0,0,1-3.08,6.28,19,19,0,0,1,9.34-.58,22.45,22.45,0,0,1,8.92,3.72q5.87,4.06,7.23,9.85a13,13,0,0,1-2.11,10.79,13.26,13.26,0,0,1-11.46,6q-7.35,0-16.18-6.1l-8.16-5.66L174.55,735a10.87,10.87,0,0,0-2.07,8.72q1,4.37,6.11,7.94a14.92,14.92,0,0,0,9.45,3,8.73,8.73,0,0,0,7.1-3.65l4.48,3.16q-3.36,4.86-10.34,5.28a21.15,21.15,0,0,1-13.55-4.14q-6.81-4.72-8.38-10.85t2.54-12.29l13.35-19.25q4.09-5.91,4.89-9.7l.31-.45Zm11.89,13a18.37,18.37,0,0,0-9.58-3.42,15.59,15.59,0,0,0-9.21,2.25l-6.2,8.94,8,5.58c4.53,3.07,8.6,4.68,12.24,4.84a9,9,0,0,0,8.35-3.93,8.84,8.84,0,0,0,1.39-7.43A11.55,11.55,0,0,0,205.15,719.09Z"/><path class="cls-1" d="M130.74,683.42q7.92-8.45,16.3-9.9A16.32,16.32,0,0,1,161.73,678q7.56,7.06,6.17,16.3l4.8-4.78,3.74,3.5-48,51.3-4-3.72,19.1-20.41q-9.34,2.36-16.82-4.65a16.53,16.53,0,0,1-5.56-14.39q.86-8.37,9-17.09Zm3.35,4.46q-6.69,7.14-7.56,13.63a12.39,12.39,0,0,0,4.17,11.21,15.11,15.11,0,0,0,8.28,4.21,15.73,15.73,0,0,0,9.22-1.74l15.26-16.3q3.38-9.63-4.24-16.76a12.27,12.27,0,0,0-11.39-3.33Q141.38,680.09,134.09,687.88Z"/><path class="cls-1" d="M118.19,630.49a25.76,25.76,0,0,1-4.75,5.13,19,19,0,0,1,9.11,2.14,22.49,22.49,0,0,1,7.47,6.12q4.46,5.58,4.09,11.51a13,13,0,0,1-5.13,9.73,13.25,13.25,0,0,1-12.69,2.42q-7-2.09-13.74-10.5l-6.19-7.76-4.4,3.5a10.85,10.85,0,0,0-4.49,7.76Q87.13,665,91,669.9a15,15,0,0,0,8.19,5.58,8.67,8.67,0,0,0,7.85-1.45l3.38,4.32Q105.85,682,99,680.43a21.17,21.17,0,0,1-11.79-7.87q-5.14-6.46-4.89-12.79t6-11l18.32-14.59q5.63-4.47,7.47-7.88l.43-.34Zm7.64,15.91a18.4,18.4,0,0,0-8.19-6,15.62,15.62,0,0,0-9.47-.5l-8.51,6.78,6.1,7.66q5.17,6.36,10.32,8.16a9,9,0,0,0,9.12-1.36,8.84,8.84,0,0,0,3.49-6.72A11.7,11.7,0,0,0,125.83,646.4Z"/><path class="cls-1" d="M102.57,607.13l3,4.63L46.23,649.49l-2.95-4.63Z"/><path class="cls-1" d="M53.79,605.34a19.35,19.35,0,0,1-9.22-3.15A18.19,18.19,0,0,1,38.32,595q-3.52-7.14-1.23-12.61t10.32-9.49l29.13-14.39L79,563.41,49.78,577.82q-5.93,3-7.61,6.9t1,9.38A13.89,13.89,0,0,0,50,600.75a18.67,18.67,0,0,0,10.26,1.39l30.39-15L93.07,592l-63,31.13-2.41-4.88Z"/><path class="cls-1" d="M47,554a29.07,29.07,0,0,1-13.09,1.28,20.82,20.82,0,0,1-17.37-14.7q-3-9.42,1.74-17.37t15.63-11.42l1.09-.35a29.26,29.26,0,0,1,13.16-1.29A20.59,20.59,0,0,1,59,514.84a21.33,21.33,0,0,1,6.46,10,20.41,20.41,0,0,1-1.74,17.34q-4.74,8-15.63,11.45Zm-.23-5.69q8.46-2.7,12.49-8.81a15.55,15.55,0,0,0-7.32-22.92q-6.82-2.65-15.72.19l-1,.32A25.28,25.28,0,0,0,26,522.2,16.94,16.94,0,0,0,20.81,530a15.12,15.12,0,0,0,.18,9.07,14.62,14.62,0,0,0,9.1,9.63q6.87,2.65,15.72-.17Z"/><path class="cls-1" d="M16.57,468.71a7.89,7.89,0,0,1-6.13-1.64A9.41,9.41,0,0,1,9,454.94a7.88,7.88,0,0,1,5.42-3.06l1.82-.21a7.71,7.71,0,0,1,6.13,1.64,8.61,8.61,0,0,1,2.88,5.84,8.48,8.48,0,0,1-1.52,6.39,7.84,7.84,0,0,1-5.64,3Z"/></g></g></svg>