<svg xmlns="http://www.w3.org/2000/svg" viewBox="0 0 839.12 843.15"><defs><style>.cls-1{fill:#fff;fill-rule:evenodd;}</style></defs><g id="Camada_2" data-name="Camada 2"><g id="Camada_1-2" data-name="Camada 1"><path class="cls-1" d="M716.86,122.53C638,43.55,533.08.05,421.31,0,191,0,3.6,187.42,3.51,417.77A417.09,417.09,0,0,0,59.27,626.65L0,843.15l221.49-58.1a417.38,417.38,0,0,0,199.66,50.86h.17c230.27,0,417.71-187.43,417.8-417.8,0-111.64-43.37-216.61-122.26-295.58ZM421.31,765.35h-.14a346.69,346.69,0,0,1-176.74-48.41l-12.68-7.53L100.31,743.9,135.4,615.75l-8.26-13.14A346.44,346.44,0,0,1,74.05,417.8c.07-191.46,155.86-347.24,347.4-347.24A347.33,347.33,0,0,1,768.59,418.08c-.09,191.48-155.87,347.27-347.28,347.27ZM611.8,505.27c-10.44-5.23-61.77-30.48-71.34-34s-16.53-5.22-23.48,5.23-27,34-33.06,40.93-12.18,7.84-22.62,2.61-44.08-16.25-83.95-51.82c-31-27.68-52-61.86-58.08-72.31s0-15.56,4.58-21.31c11.3-14,22.62-28.74,26.1-35.71s1.74-13.06-.88-18.29-23.48-56.6-32.18-77.51c-8.48-20.35-17.07-17.6-23.49-17.92-6.08-.31-13-.37-20-.37s-18.28,2.61-27.85,13.07S209,273.6,209,325s37.41,101,42.63,108S325.26,545.39,430,590.61a595.66,595.66,0,0,0,59.52,22c25,7.95,47.76,6.83,65.75,4.14,20.06-3,61.76-25.25,70.47-49.64s8.7-45.28,6.08-49.64-9.57-7-20-12.19Z"/></g></g></svg>