<svg xmlns="http://www.w3.org/2000/svg" viewBox="0 0 135 135"><defs><style>.cls-1{fill:#fff;}</style></defs><g id="Camada_2" data-name="Camada 2"><g id="Graphic_Elements" data-name="Graphic Elements"><path class="cls-1" d="M67.5,0A67.5,67.5,0,1,0,135,67.5,67.5,67.5,0,0,0,67.5,0ZM45.22,104.38c-4.8,0-9.6,0-14.4,0-.77,0-1-.19-1-1q0-25.67,0-51.33c0-.71.17-1,.92-1,4.87,0,9.75,0,14.62,0,.93,0,1.06.35,1.06,1.15,0,8.52,0,17,0,25.56s0,16.91,0,25.36C46.43,104.11,46.19,104.39,45.22,104.38ZM38.13,43.77a9.59,9.59,0,1,1,9.6-9.63A9.65,9.65,0,0,1,38.13,43.77Zm70.4,59.51c0,.88-.24,1.1-1.1,1.1q-7.2-.06-14.41,0c-.84,0-1-.26-1-1Q92,90,92,76.71a24.16,24.16,0,0,0-.77-6.61c-1.15-4-4-6-8.17-5.79-5.7.3-8.66,3.12-9.39,8.91a34.19,34.19,0,0,0-.25,4.17c0,8.62,0,17.25,0,25.88,0,.86-.21,1.12-1.09,1.11q-7.26-.06-14.52,0c-.77,0-1-.21-1-1q0-25.64,0-51.25c0-.85.28-1,1.08-1,4.59,0,9.19,0,13.78,0,.85,0,1.07.26,1,1.06,0,2.05,0,4.09,0,6.13,1.11-1.24,2-2.51,3.16-3.58a17.3,17.3,0,0,1,12.48-4.92,28.74,28.74,0,0,1,7.84,1c5.86,1.69,9.27,5.73,10.89,11.45a48,48,0,0,1,1.45,13.12C108.56,84.63,108.51,94,108.53,103.28Z"/></g></g></svg>