<svg xmlns="http://www.w3.org/2000/svg" viewBox="0 0 866.6 845.2"><defs><style>.cls-1,.cls-2{fill:#fff;}.cls-1{fill-rule:evenodd;}</style></defs><g id="Camada_2" data-name="Camada 2"><g id="Camada_1-2" data-name="Camada 1"><path class="cls-1" d="M433.3,0C194,0,0,194,0,433.3,0,624.74,124.15,787.16,296.32,844.46c21.65,4,29.6-9.41,29.6-20.85,0-10.33-.4-44.47-.59-80.67-120.54,26.21-146-51.13-146-51.13-19.71-50.08-48.11-63.4-48.11-63.4-39.31-26.89,3-26.34,3-26.34,43.5,3.06,66.42,44.66,66.42,44.66,38.64,66.24,101.36,47.09,126.09,36,3.89-28,15.12-47.13,27.51-58C258,613.85,156.81,576.69,156.81,410.67c0-47.31,16.93-86,44.65-116.31-4.5-10.91-19.33-55,4.2-114.67,0,0,36.39-11.64,119.18,44.42a411,411,0,0,1,217,0c82.7-56.06,119-44.42,119-44.42,23.59,59.69,8.75,103.76,4.26,114.67,27.78,30.35,44.59,69,44.59,116.31,0,166.42-101.37,203.06-197.85,213.79,15.54,13.45,29.38,39.81,29.38,80.24,0,58-.49,104.64-.49,118.91,0,11.53,7.8,25,29.76,20.79C742.6,787,866.6,624.68,866.6,433.3,866.6,194,672.6,0,433.3,0Z"/><path class="cls-2" d="M164.11,622.12c-1,2.16-4.34,2.8-7.42,1.32s-4.91-4.35-3.89-6.51,4.32-2.83,7.46-1.35,4.94,4.38,3.85,6.54Z"/><path class="cls-2" d="M181.67,641.7c-2.07,1.91-6.11,1-8.85-2s-3.37-7.06-1.27-9,6-1,8.88,2,3.39,7.07,1.24,9Z"/><path class="cls-2" d="M198.75,666.65c-2.66,1.85-7,.12-9.68-3.73s-2.66-8.48.06-10.33,7-.19,9.68,3.63,2.65,8.54-.06,10.43Z"/><path class="cls-2" d="M222.15,690.76c-2.37,2.62-7.43,1.91-11.13-1.66s-4.84-8.45-2.47-11.07,7.5-1.89,11.23,1.66,4.9,8.48,2.37,11.07Z"/><path class="cls-2" d="M254.44,704.76c-1.05,3.39-5.92,4.93-10.82,3.49s-8.11-5.46-7.12-8.88,5.91-5,10.85-3.49,8.11,5.43,7.09,8.88Z"/><path class="cls-2" d="M289.91,707.35c.11,3.58-4.05,6.54-9.2,6.6s-9.37-2.77-9.43-6.29,4.07-6.54,9.25-6.63,9.38,2.78,9.38,6.32Z"/><path class="cls-2" d="M322.9,701.74c.62,3.48-3,7.06-8.08,8s-9.68-1.24-10.33-4.69,3-7.15,8.05-8.08,9.71,1.21,10.36,4.75Z"/></g></g></svg>